<svg xmlns="http://www.w3.org/2000/svg" width="47" height="15" viewBox="0 0 47 15" fill="none">
  <path d="M17.3898 0.787327H0.0361865C0.0171885 0.526468 0.00512643 0.264124 0 0H17.353C17.3584 0.264124 17.3708 0.526765 17.3898 0.787327Z" fill="#000C8D"/>
  <path d="M17.5888 2.36155H0.234277C0.187234 2.10128 0.147127 1.83894 0.114258 1.57422H17.4684C17.5013 1.83894 17.5414 2.10158 17.5888 2.36155Z" fill="#000C8D"/>
  <path d="M46.0333 0C46.0279 0.264124 46.0155 0.526765 45.9968 0.787327C45.9775 1.05175 45.9513 1.31409 45.9184 1.57465C45.8853 1.83907 45.8451 2.10171 45.7978 2.36198C44.5451 9.29389 38.5086 14.5977 31.167 14.8494H14.0447C16.9689 14.7067 19.6783 13.762 21.9511 12.2343C22.43 11.9126 22.8893 11.5648 23.3274 11.1932C23.4523 11.1042 23.5681 11.0027 23.6727 10.8917C25.9271 8.86091 27.5664 6.17931 28.2829 3.1496C28.3444 2.88963 28.399 2.62699 28.4466 2.36228C28.4937 2.10201 28.5338 1.83967 28.5667 1.57495C28.5995 1.31468 28.6255 1.05204 28.6445 0.787623C28.6635 0.526763 28.6755 0.264421 28.6806 0.000297058H35.1586V0.00504455C35.1586 0.279555 35.2072 0.543382 35.2962 0.787623C35.4035 1.08202 35.5697 1.34911 35.7808 1.57495C36.2114 2.03524 36.8284 2.3234 37.5144 2.3234C38.2004 2.3234 38.8174 2.03524 39.248 1.57495C39.4591 1.34941 39.6253 1.08231 39.7326 0.787623C39.8216 0.543085 39.8701 0.279555 39.8701 0.00504455V0.000297058H46.0333V0Z" fill="url(#paint0_linear_2510_1324)"/>
  <path d="M16.1899 14.8501C15.9325 14.8625 15.6735 14.8688 15.413 14.8688C15.1582 14.8688 14.9048 14.8621 14.653 14.8501H16.1899Z" fill="url(#paint1_linear_2510_1324)"/>
  <path d="M17.7529 3.15039C17.7898 3.15605 18.2913 5.06972 18.3578 5.26026C18.9784 7.03247 19.9973 8.72963 21.3696 10.0413C21.8683 10.5178 22.5132 11.0101 23.2061 11.2929C22.8043 11.6267 22.3864 11.942 21.9512 12.2344C19.752 13.7127 17.1437 14.6425 14.328 14.8307C7.50624 14.3638 1.90708 9.53024 0.397949 3.15039H17.7529Z" fill="url(#paint2_linear_2510_1324)"/>
  <defs>
    <linearGradient id="paint0_linear_2510_1324" x1="30.039" y1="0" x2="30.039" y2="14.8494" gradientUnits="userSpaceOnUse">
      <stop stop-color="#1871FF"/>
      <stop offset="1" stop-color="#84B2FF"/>
    </linearGradient>
    <linearGradient id="paint1_linear_2510_1324" x1="12.9119" y1="3.15006" x2="12.9119" y2="14.8688" gradientUnits="userSpaceOnUse">
      <stop stop-color="#000C8D"/>
      <stop offset="1" stop-color="#1871FF"/>
    </linearGradient>
    <linearGradient id="paint2_linear_2510_1324" x1="12.9119" y1="3.15006" x2="12.9119" y2="14.8688" gradientUnits="userSpaceOnUse">
      <stop stop-color="#000C8D"/>
      <stop offset="1" stop-color="#1871FF"/>
    </linearGradient>
  </defs>
</svg>